<svg width="53" height="45" viewBox="0 0 53 45" fill="none" xmlns="http://www.w3.org/2000/svg">
<rect x="1" y="1" width="51" height="43" rx="7" stroke="#3FC979" stroke-width="2"/>
<g clip-path="url(#clip0_15_55)">
<path d="M26.1688 17.8238L18.1667 24.4145V31.5278C18.1667 31.712 18.2398 31.8886 18.3701 32.0188C18.5003 32.1491 18.6769 32.2222 18.8611 32.2222L23.7248 32.2097C23.9084 32.2087 24.0842 32.1352 24.2136 32.005C24.3431 31.8749 24.4158 31.6988 24.4158 31.5152V27.3611C24.4158 27.177 24.489 27.0003 24.6192 26.8701C24.7494 26.7399 24.9261 26.6667 25.1103 26.6667H27.888C28.0722 26.6667 28.2488 26.7399 28.3791 26.8701C28.5093 27.0003 28.5825 27.177 28.5825 27.3611V31.5122C28.5822 31.6035 28.5999 31.6941 28.6347 31.7786C28.6695 31.8631 28.7206 31.9399 28.7851 32.0046C28.8496 32.0693 28.9263 32.1207 29.0107 32.1557C29.0951 32.1908 29.1855 32.2088 29.2769 32.2088L34.1389 32.2222C34.3231 32.2222 34.4997 32.1491 34.6299 32.0188C34.7602 31.8886 34.8333 31.712 34.8333 31.5278V24.4097L26.8329 17.8238C26.7389 17.748 26.6217 17.7066 26.5009 17.7066C26.3801 17.7066 26.2629 17.748 26.1688 17.8238ZM38.809 22.3034L35.1806 19.3125V13.3008C35.1806 13.1627 35.1257 13.0302 35.028 12.9325C34.9303 12.8348 34.7979 12.78 34.6597 12.78H32.2292C32.091 12.78 31.9586 12.8348 31.8609 12.9325C31.7632 13.0302 31.7083 13.1627 31.7083 13.3008V16.4523L27.8225 13.2552C27.4496 12.9484 26.9816 12.7806 26.4987 12.7806C26.0158 12.7806 25.5478 12.9484 25.1749 13.2552L14.1884 22.3034C14.1356 22.347 14.092 22.4006 14.06 22.461C14.0279 22.5215 14.0081 22.5877 14.0017 22.6558C13.9952 22.7239 14.0023 22.7926 14.0224 22.858C14.0425 22.9234 14.0753 22.9842 14.1189 23.0369L15.2257 24.3824C15.2692 24.4353 15.3227 24.4791 15.3832 24.5113C15.4436 24.5435 15.5098 24.5634 15.578 24.57C15.6462 24.5766 15.715 24.5696 15.7805 24.5496C15.8459 24.5295 15.9068 24.4968 15.9596 24.4531L26.1688 16.0443C26.2629 15.9685 26.3801 15.9271 26.5009 15.9271C26.6217 15.9271 26.7389 15.9685 26.8329 16.0443L37.0425 24.4531C37.0953 24.4968 37.1561 24.5296 37.2214 24.5497C37.2868 24.5698 37.3556 24.5768 37.4237 24.5704C37.4918 24.564 37.558 24.5441 37.6184 24.5121C37.6789 24.4801 37.7325 24.4364 37.7761 24.3837L38.8828 23.0382C38.9264 22.9852 38.9591 22.9241 38.979 22.8584C38.9988 22.7927 39.0055 22.7238 38.9987 22.6555C38.9918 22.5872 38.9715 22.5209 38.939 22.4605C38.9064 22.4001 38.8623 22.3467 38.809 22.3034Z" fill="#3FC979"/>
</g>
<defs>
<clipPath id="clip0_15_55">
<rect width="25" height="25" fill="white" transform="translate(14 10)"/>
</clipPath>
</defs>
</svg>
