<svg width="53" height="45" viewBox="0 0 53 45" fill="none" xmlns="http://www.w3.org/2000/svg">
<rect x="1" y="1" width="51" height="43" rx="7" stroke="#C5C5C5" stroke-width="2"/>
<path d="M35 22C35 29 26 35 26 35C26 35 17 29 17 22C17 19.6131 17.9482 17.3239 19.636 15.636C21.3239 13.9482 23.6131 13 26 13C28.3869 13 30.6761 13.9482 32.364 15.636C34.0518 17.3239 35 19.6131 35 22Z" stroke="#C5C5C5" stroke-width="2" stroke-linecap="round" stroke-linejoin="round"/>
<path d="M26 25C27.6569 25 29 23.6569 29 22C29 20.3431 27.6569 19 26 19C24.3431 19 23 20.3431 23 22C23 23.6569 24.3431 25 26 25Z" stroke="#C5C5C5" stroke-width="2" stroke-linecap="round" stroke-linejoin="round"/>
</svg>
