<svg width="188" height="188" viewBox="0 0 188 188" fill="none" xmlns="http://www.w3.org/2000/svg">
<g clip-path="url(#clip0_148_128)">
<path fill-rule="evenodd" clip-rule="evenodd" d="M148.879 93.9847C148.879 109.162 143.54 122.12 132.845 132.815C122.136 143.524 109.192 148.879 94.0153 148.879C78.8994 148.879 65.9561 143.54 55.2311 132.815C44.5215 122.12 39.1361 109.162 39.1361 93.9847C39.1361 78.8535 44.5062 65.956 55.2311 55.2158C65.9867 44.5062 78.9147 39.1207 94.0153 39.1207C109.192 39.1207 122.136 44.4909 132.845 55.2158C143.524 65.956 148.879 78.8535 148.879 93.9847ZM25.0452 83.8717C29.8646 80.5823 32.2819 76.2832 31.8688 66.4456V41.1556C31.8229 37.6214 25.4124 37.193 25.0911 41.1556L24.8464 61.6722C24.8311 65.5123 19.0632 65.6347 19.0785 61.6722L19.3232 40.4518C19.2467 36.6575 13.127 36.275 13.0505 40.4518C13.0505 46.3421 12.8057 55.7819 12.8057 61.6722C13.1117 65.3899 7.75684 65.8795 7.89453 61.6722L8.13932 40.5895C8.00163 37.7285 4.84994 36.7034 2.70801 38.0498C0.428385 39.5032 0.88737 42.4254 0.795573 44.8886L0 69.0924C0.122396 76.1302 1.97363 81.8522 7.48145 84.2848C8.32292 84.652 9.48568 84.9427 10.832 85.1416L8.9349 144.167C8.8278 147.671 11.6888 150.532 15.0394 150.532H15.8044C19.5833 150.532 22.7809 147.303 22.6738 143.371L21.0062 85.1263C22.7656 84.8509 24.2191 84.4378 25.0452 83.8717ZM163.307 142.392L163.215 89.3795C144.626 78.6393 150.547 37.2542 169.151 37.4837C191.764 37.7438 194.441 84.1165 174.995 89.2112L176.434 142.606C176.709 152.704 163.322 153.637 163.307 142.392ZM125.961 93.9388C125.961 102.782 122.855 110.325 116.597 116.582C110.355 122.809 102.813 125.945 93.9694 125.945C85.1875 125.945 77.6449 122.809 71.4027 116.582C65.1605 110.325 62.0394 102.782 62.0394 93.9388C62.0394 85.1569 65.1605 77.6142 71.4027 71.3873C77.6602 65.1604 85.1875 62.0241 93.9694 62.0241C111.732 62.0394 125.961 76.1608 125.961 93.9388ZM133.442 93.9388C133.442 83.0761 129.617 73.7893 121.922 66.0937C114.226 58.3981 104.909 54.5732 93.9694 54.5732C83.0609 54.5732 73.7741 58.3981 66.1244 66.0937C58.4287 73.7893 54.5579 83.0761 54.5579 93.9388C54.5579 104.832 58.4287 114.119 66.1244 121.845C73.7741 129.556 83.0609 133.427 93.9694 133.427C104.893 133.427 114.211 129.556 121.922 121.845C129.602 114.103 133.442 104.817 133.442 93.9388Z" fill="white"/>
</g>
<defs>
<clipPath id="clip0_148_128">
<rect width="188" height="188" fill="white"/>
</clipPath>
</defs>
</svg>
