<svg width="53" height="45" viewBox="0 0 53 45" fill="none" xmlns="http://www.w3.org/2000/svg">
<rect x="1" y="1" width="51" height="43" rx="7" stroke="#C5C5C5" stroke-width="2"/>
<g clip-path="url(#clip0_175_129)">
<path d="M26.5 11.3906C19.8105 11.3906 14.3906 16.8105 14.3906 23.5C14.3906 30.1895 19.8105 35.6094 26.5 35.6094C33.1895 35.6094 38.6094 30.1895 38.6094 23.5C38.6094 16.8105 33.1895 11.3906 26.5 11.3906ZM29.2881 28.4854L24.9814 25.3555C24.8301 25.2432 24.7422 25.0674 24.7422 24.8818V16.6641C24.7422 16.3418 25.0059 16.0781 25.3281 16.0781H27.6719C27.9941 16.0781 28.2578 16.3418 28.2578 16.6641V23.3877L31.3584 25.6436C31.6221 25.834 31.6758 26.2002 31.4854 26.4639L30.1084 28.3584C29.918 28.6172 29.5518 28.6758 29.2881 28.4854Z" fill="#C5C5C5"/>
</g>
<defs>
<clipPath id="clip0_175_129">
<rect width="25" height="25" fill="white" transform="translate(14 11)"/>
</clipPath>
</defs>
</svg>
