<svg width="54" height="45" viewBox="0 0 54 45" fill="none" xmlns="http://www.w3.org/2000/svg">
<rect x="1.33438" y="1" width="51" height="43" rx="7" stroke="#3FC979" stroke-width="2"/>
<g clip-path="url(#clip0_15_59)">
<path d="M21.4047 10.8301C20.8529 9.96092 19.5883 9.71678 18.768 10.3711C16.058 12.5342 14.3344 15.7617 14.3344 19.375H26.8344L21.4047 10.8301ZM38.5531 14.6875H36.2094C34.4857 14.6875 33.0844 16.0889 33.0844 17.8125V20.9375H14.3344C14.3344 23.4082 15.4574 25.6445 17.2787 27.3193C15.5893 27.7539 14.3344 29.2724 14.3344 31.0937C14.3344 33.2519 16.0824 35 18.2406 35C20.3988 35 22.1469 33.2519 22.1469 31.0937C22.1469 30.6592 22.059 30.2539 21.932 29.8633C22.9867 30.1514 24.1098 30.3125 25.2719 30.3125C26.434 30.3125 27.5619 30.1514 28.6117 29.8633C28.4799 30.2539 28.3969 30.6592 28.3969 31.0937C28.3969 33.2519 30.1449 35 32.3031 35C34.4613 35 36.2094 33.2519 36.2094 31.0937C36.2094 29.2724 34.9545 27.7539 33.265 27.3193C35.0863 25.6445 36.2094 23.4082 36.2094 20.9375V17.8125H38.5531C38.9828 17.8125 39.3344 17.4609 39.3344 17.0312V15.4687C39.3344 15.039 38.9828 14.6875 38.5531 14.6875ZM18.2406 32.6562C17.3813 32.6562 16.6781 31.9531 16.6781 31.0937C16.6781 30.2344 17.3813 29.5312 18.2406 29.5312C19.1 29.5312 19.8031 30.2344 19.8031 31.0937C19.8031 31.9531 19.1 32.6562 18.2406 32.6562ZM33.8656 31.0937C33.8656 31.9531 33.1625 32.6562 32.3031 32.6562C31.4438 32.6562 30.7406 31.9531 30.7406 31.0937C30.7406 30.2344 31.4438 29.5312 32.3031 29.5312C33.1625 29.5312 33.8656 30.2344 33.8656 31.0937Z" fill="#3FC979"/>
</g>
<defs>
<clipPath id="clip0_15_59">
<rect width="25" height="25" fill="white" transform="translate(14.3344 10)"/>
</clipPath>
</defs>
</svg>
